<svg width="14" height="16" viewBox="0 0 14 16" fill="none" xmlns="http://www.w3.org/2000/svg">
<path d="M9.01568 13.8286C8.40616 14.7429 7.64425 15.2 6.72997 15.2C5.35854 15.2 5.05408 14.7429 4.44425 13.8286M11.3791 12.4571H2.08082C1.8137 12.4573 1.55134 12.3865 1.32055 12.252C1.08976 12.1175 0.898815 11.9241 0.767239 11.6917C0.635663 11.4592 0.568171 11.196 0.571662 10.9289C0.575153 10.6618 0.649502 10.4004 0.787109 10.1714C1.68553 8.67638 2.15965 6.9648 2.15854 5.22057V4.22857C2.15854 3.25864 2.54384 2.32843 3.22969 1.64258C3.91554 0.956733 4.84575 0.571428 5.81568 0.571428H7.64425C8.61419 0.571428 9.5444 0.956733 10.2302 1.64258C10.9161 2.32843 11.3014 3.25864 11.3014 4.22857V5.22057C11.3014 6.96411 11.775 8.67657 12.6728 10.1714C12.8104 10.4004 12.8848 10.6618 12.8883 10.9289C12.8918 11.196 12.8243 11.4592 12.6927 11.6917C12.5611 11.9241 12.3702 12.1175 12.1394 12.252C11.9086 12.3865 11.6462 12.4573 11.3791 12.4571Z" stroke="black" stroke-width="1.14286" stroke-linecap="round" stroke-linejoin="round"/>
</svg>
