<svg width="20" height="20" viewBox="0 0 20 20" fill="none" xmlns="http://www.w3.org/2000/svg">
<rect width="20" height="20" rx="4" fill="#008421"/>
<path d="M14.5976 6.63083C14.8476 6.86917 14.8576 7.26417 14.6193 7.51417L9.06344 13.3475C9.00507 13.4088 8.93487 13.4575 8.85708 13.4909C8.7793 13.5242 8.69556 13.5414 8.61094 13.5414C8.52632 13.5414 8.44258 13.5242 8.3648 13.4909C8.28702 13.4575 8.21681 13.4088 8.15844 13.3475L5.38094 10.4308C5.32191 10.3719 5.27528 10.3018 5.24378 10.2245C5.21228 10.1473 5.19657 10.0645 5.19755 9.98112C5.19854 9.89772 5.21621 9.81535 5.24953 9.73888C5.28284 9.66241 5.33113 9.59339 5.39154 9.53587C5.45195 9.47836 5.52326 9.43351 5.60127 9.40399C5.67928 9.37446 5.76241 9.36085 5.84576 9.36395C5.92911 9.36705 6.011 9.38681 6.0866 9.42205C6.1622 9.4573 6.22998 9.50732 6.28594 9.56917L8.61094 12.0108L13.7143 6.6525C13.8286 6.53254 13.9858 6.46287 14.1515 6.45881C14.3171 6.45474 14.4776 6.51662 14.5976 6.63083Z" fill="white"/>
</svg>
