<svg width="19" height="13" viewBox="0 0 19 13" fill="none" xmlns="http://www.w3.org/2000/svg">
<path d="M6.00956 11.3431L17.1031 0.198264C17.2257 0.0750099 17.3703 0.00916157 17.5366 0.000719493C17.703 -0.00772258 17.8555 0.0581258 17.9941 0.198264C18.1328 0.338403 18.2025 0.489093 18.2033 0.650337C18.2042 0.811581 18.1349 0.96185 17.9954 1.10114L6.72291 12.4346C6.51874 12.6398 6.28095 12.7423 6.00956 12.7423C5.73817 12.7423 5.50038 12.6398 5.29621 12.4346L0.191838 7.30607C0.0691653 7.18281 0.00530825 7.03634 0.000266895 6.86666C-0.00477446 6.69697 0.0616034 6.54248 0.1994 6.40319C0.337197 6.26389 0.487178 6.19425 0.649341 6.19425C0.811505 6.19425 0.961485 6.26389 1.09928 6.40319L6.00956 11.3431Z" fill="black"/>
</svg>
