<svg width="16" height="16" viewBox="0 0 16 16" fill="none" xmlns="http://www.w3.org/2000/svg">
<g clip-path="url(#clip0_15_2771)">
<path d="M12.025 6.95C13.6681 6.95 15 5.61805 15 3.975C15 2.33195 13.6681 1 12.025 1C10.382 1 9.05005 2.33195 9.05005 3.975C9.05005 5.61805 10.382 6.95 12.025 6.95Z" stroke="black" stroke-linecap="round" stroke-linejoin="round"/>
<path d="M3.975 6.95C5.61805 6.95 6.95 5.61805 6.95 3.975C6.95 2.33195 5.61805 1 3.975 1C2.33195 1 1 2.33195 1 3.975C1 5.61805 2.33195 6.95 3.975 6.95Z" stroke="black" stroke-linecap="round" stroke-linejoin="round"/>
<path d="M12.025 15C13.6681 15 15 13.6681 15 12.025C15 10.382 13.6681 9.05 12.025 9.05C10.382 9.05 9.05005 10.382 9.05005 12.025C9.05005 13.6681 10.382 15 12.025 15Z" stroke="black" stroke-linecap="round" stroke-linejoin="round"/>
<path d="M3.975 15C5.61805 15 6.95 13.6681 6.95 12.025C6.95 10.382 5.61805 9.05 3.975 9.05C2.33195 9.05 1 10.382 1 12.025C1 13.6681 2.33195 15 3.975 15Z" stroke="black" stroke-linecap="round" stroke-linejoin="round"/>
</g>
<defs>
<clipPath id="clip0_15_2771">
<rect width="16" height="16" fill="white"/>
</clipPath>
</defs>
</svg>
