<svg width="14" height="15" viewBox="0 0 14 15" fill="none" xmlns="http://www.w3.org/2000/svg">
<path fill-rule="evenodd" clip-rule="evenodd" d="M1.77525 4.12744C1.92402 4.11756 2.07063 4.16715 2.18285 4.26531C2.29508 4.36348 2.36374 4.50218 2.37375 4.65094L2.71875 9.82594C2.78625 10.8362 2.83425 11.5397 2.93925 12.0684C3.042 12.5822 3.1845 12.8537 3.38925 13.0457C3.59475 13.2377 3.87525 13.3622 4.39425 13.4297C4.92975 13.4994 5.63475 13.5009 6.64725 13.5009H7.22775C8.24025 13.5009 8.94525 13.4994 9.48075 13.4297C9.99975 13.3622 10.2803 13.2377 10.4858 13.0457C10.6905 12.8537 10.833 12.5822 10.9357 12.0692C11.0407 11.5397 11.0887 10.8362 11.1562 9.82519L11.5012 4.65094C11.5062 4.57722 11.5256 4.50519 11.5583 4.43897C11.5911 4.37274 11.6366 4.31362 11.6922 4.26497C11.7478 4.21632 11.8124 4.17911 11.8824 4.15545C11.9524 4.13178 12.0264 4.12214 12.1001 4.12706C12.1738 4.13199 12.2459 4.15139 12.3121 4.18415C12.3783 4.21691 12.4374 4.26239 12.4861 4.318C12.5347 4.37362 12.572 4.43826 12.5956 4.50826C12.6193 4.57825 12.6289 4.65222 12.624 4.72594L12.276 9.93994C12.2122 10.9014 12.1605 11.6792 12.039 12.2889C11.9122 12.9227 11.6977 13.4522 11.2537 13.8669C10.8097 14.2817 10.2675 14.4617 9.62625 14.5449C9.00975 14.6259 8.23125 14.6259 7.2675 14.6259H6.6075C5.64375 14.6259 4.86525 14.6259 4.24875 14.5449C3.6075 14.4617 3.0645 14.2824 2.62125 13.8669C2.17725 13.4522 1.96275 12.9219 1.836 12.2889C1.7145 11.6784 1.6635 10.9014 1.599 9.93994L1.251 4.72594C1.24611 4.65222 1.25579 4.57825 1.2795 4.50827C1.3032 4.43829 1.34046 4.37366 1.38914 4.31809C1.43782 4.26251 1.49698 4.21706 1.56323 4.18435C1.62948 4.15164 1.70152 4.1323 1.77525 4.12744ZM5.70375 0.000939945H5.66925C5.50725 0.000939945 5.3655 0.000940032 5.232 0.02194C4.97197 0.0635973 4.72529 0.165536 4.51171 0.319601C4.29813 0.473666 4.12357 0.67558 4.002 0.90919C3.939 1.02919 3.89475 1.16344 3.84375 1.31719L3.8325 1.35019L3.75975 1.56769L3.738 1.63219C3.6701 1.82068 3.54359 1.98246 3.37704 2.09382C3.21048 2.20517 3.01263 2.26023 2.8125 2.25094H0.5625C0.413316 2.25094 0.270242 2.3102 0.164752 2.41569C0.0592632 2.52118 0 2.66426 0 2.81344C0 2.96262 0.0592632 3.1057 0.164752 3.21119C0.270242 3.31668 0.413316 3.37594 0.5625 3.37594H13.3132C13.4624 3.37594 13.6055 3.31668 13.711 3.21119C13.8165 3.1057 13.8757 2.96262 13.8757 2.81344C13.8757 2.66426 13.8165 2.52118 13.711 2.41569C13.6055 2.3102 13.4624 2.25094 13.3132 2.25094H10.995C10.7947 2.24613 10.6012 2.17727 10.4428 2.05444C10.2845 1.93161 10.1697 1.76129 10.1152 1.56844L10.0425 1.35019L10.032 1.31719C9.98025 1.16344 9.936 1.02919 9.87375 0.90919C9.75211 0.675489 9.57743 0.473517 9.36371 0.319446C9.14999 0.165376 8.90317 0.0634878 8.643 0.02194C8.49796 0.00430141 8.35182 -0.00271736 8.20575 0.000939945H5.70375ZM4.79625 2.01469C4.76625 2.09669 4.732 2.17544 4.6935 2.25094H9.1815C9.14305 2.17444 9.10899 2.09582 9.0795 2.01544L9.0495 1.92994L8.97525 1.70494C8.94804 1.61087 8.91472 1.51867 8.8755 1.42894C8.83501 1.35095 8.77681 1.28352 8.70557 1.23208C8.63433 1.18063 8.55202 1.14659 8.46525 1.13269C8.3675 1.12403 8.26929 1.12178 8.17125 1.12594H5.70375C5.48775 1.12594 5.44275 1.12744 5.40975 1.13344C5.32305 1.14726 5.24079 1.18119 5.16955 1.2325C5.09832 1.28381 5.04008 1.35109 4.9995 1.42894C4.9845 1.45894 4.968 1.50019 4.89975 1.70569L4.82475 1.93069L4.79625 2.01469Z" fill="black"/>
</svg>
