<svg width="24" height="24" viewBox="0 0 24 24" fill="none" xmlns="http://www.w3.org/2000/svg">
<g clip-path="url(#clip0_39_1494)">
<path d="M12 17.568C11.816 17.568 11.6457 17.5377 11.4891 17.4771C11.3326 17.4166 11.18 17.3114 11.0314 17.1617L6.54 12.672C6.37314 12.5051 6.28629 12.3086 6.27943 12.0823C6.27257 11.856 6.35943 11.6486 6.54 11.46C6.72971 11.2703 6.93371 11.1737 7.152 11.1703C7.37143 11.1669 7.57543 11.26 7.764 11.4497L11.1429 14.8286V0.857154C11.1429 0.613726 11.2246 0.409726 11.388 0.245155C11.5514 0.0805834 11.7554 -0.00113103 12 1.18226e-05C12.2446 0.00115468 12.4486 0.0828691 12.612 0.245155C12.7754 0.40744 12.8571 0.61144 12.8571 0.857154V14.8286L16.236 11.4497C16.4029 11.2829 16.6011 11.1954 16.8309 11.1874C17.0606 11.1794 17.2697 11.2703 17.4583 11.46C17.6411 11.6486 17.7343 11.8509 17.7377 12.0669C17.7411 12.2829 17.6486 12.4846 17.46 12.672L12.9686 17.1634C12.82 17.312 12.6674 17.4166 12.5109 17.4771C12.3554 17.5377 12.1851 17.568 12 17.568ZM2.77029 24C1.98057 24 1.32171 23.736 0.793714 23.208C0.265714 22.68 0.00114286 22.0206 0 21.2297V17.9331C0 17.6897 0.0817145 17.4863 0.245143 17.3229C0.408572 17.1594 0.612571 17.0771 0.857143 17.076C1.10171 17.0749 1.30571 17.1571 1.46914 17.3229C1.63257 17.4886 1.71429 17.692 1.71429 17.9331V21.2297C1.71429 21.4937 1.824 21.736 2.04343 21.9566C2.26286 22.1771 2.50457 22.2869 2.76857 22.2857H21.2314C21.4943 22.2857 21.736 22.176 21.9566 21.9566C22.1771 21.7371 22.2869 21.4949 22.2857 21.2297V17.9331C22.2857 17.6897 22.3674 17.4863 22.5309 17.3229C22.6943 17.1594 22.8983 17.0771 23.1429 17.076C23.3874 17.0749 23.5914 17.1571 23.7549 17.3229C23.9183 17.4886 24 17.692 24 17.9331V21.2297C24 22.0194 23.736 22.6783 23.208 23.2063C22.68 23.7343 22.0206 23.9989 21.2297 24H2.77029Z" fill="white"/>
</g>
<defs>
<clipPath id="clip0_39_1494">
<rect width="24" height="24" fill="white"/>
</clipPath>
</defs>
</svg>
