<svg width="26" height="26" viewBox="0 0 26 26" fill="none" xmlns="http://www.w3.org/2000/svg">
<rect x="0.5" y="0.5" width="25" height="25" rx="4.5" fill="#F1F1F1" stroke="#D4D4D4"/>
<path d="M17.375 13C17.375 12.884 17.4211 12.7727 17.5031 12.6906C17.5852 12.6086 17.6965 12.5625 17.8125 12.5625C17.9285 12.5625 18.0398 12.6086 18.1219 12.6906C18.2039 12.7727 18.25 12.884 18.25 13V17.8125C18.25 17.9285 18.2039 18.0398 18.1219 18.1219C18.0398 18.2039 17.9285 18.25 17.8125 18.25H8.1875C8.07147 18.25 7.96019 18.2039 7.87814 18.1219C7.79609 18.0398 7.75 17.9285 7.75 17.8125V8.1875C7.75 8.07147 7.79609 7.96019 7.87814 7.87814C7.96019 7.79609 8.07147 7.75 8.1875 7.75H13C13.116 7.75 13.2273 7.79609 13.3094 7.87814C13.3914 7.96019 13.4375 8.07147 13.4375 8.1875C13.4375 8.30353 13.3914 8.41481 13.3094 8.49686C13.2273 8.57891 13.116 8.625 13 8.625H8.625V17.375H17.375V13Z" fill="black"/>
<path d="M12.4256 13.5775L13.1475 13.4742L17.582 9.0406C17.6238 9.00024 17.6571 8.95197 17.68 8.89859C17.7029 8.84521 17.715 8.7878 17.7155 8.72971C17.716 8.67162 17.705 8.61401 17.683 8.56024C17.661 8.50648 17.6285 8.45763 17.5874 8.41655C17.5463 8.37547 17.4975 8.34299 17.4437 8.32099C17.3899 8.29899 17.3323 8.28792 17.2742 8.28843C17.2161 8.28893 17.1587 8.301 17.1054 8.32393C17.052 8.34686 17.0037 8.38019 16.9633 8.42197L12.528 12.8556L12.4247 13.5775H12.4256ZM18.2006 7.80247C18.3226 7.92436 18.4193 8.06909 18.4853 8.22838C18.5513 8.38768 18.5853 8.55842 18.5853 8.73085C18.5853 8.90328 18.5513 9.07402 18.4853 9.23332C18.4193 9.39261 18.3226 9.53734 18.2006 9.65922L13.6637 14.1961C13.5968 14.2632 13.5099 14.3069 13.4161 14.3203L11.9723 14.5268C11.9051 14.5365 11.8365 14.5304 11.772 14.5089C11.7075 14.4874 11.6489 14.4512 11.6008 14.4032C11.5527 14.3551 11.5165 14.2965 11.4951 14.232C11.4736 14.1675 11.4674 14.0989 11.4771 14.0316L11.6836 12.5878C11.6969 12.4941 11.7401 12.4072 11.807 12.3402L16.3447 7.80335C16.5909 7.55729 16.9246 7.41907 17.2727 7.41907C17.6207 7.41907 17.9545 7.55729 18.2006 7.80335V7.80247Z" fill="black"/>
</svg>
