<svg width="18" height="18" viewBox="0 0 18 18" fill="none" xmlns="http://www.w3.org/2000/svg">
<path d="M2 2.25V15.75C2 16.3467 2.24583 16.919 2.68342 17.341C3.121 17.7629 3.71449 18 4.33333 18H15.4167C15.5714 18 15.7197 17.9407 15.8291 17.8352C15.9385 17.7298 16 17.5867 16 17.4375C16 17.2883 15.9385 17.1452 15.8291 17.0398C15.7197 16.9343 15.5714 16.875 15.4167 16.875H4.33333C4.02391 16.875 3.72717 16.7565 3.50838 16.5455C3.28958 16.3345 3.16667 16.0484 3.16667 15.75H14.8333C15.1428 15.75 15.4395 15.6315 15.6583 15.4205C15.8771 15.2095 16 14.9234 16 14.625V2.25C16 1.65326 15.7542 1.08097 15.3166 0.65901C14.879 0.237053 14.2855 0 13.6667 0H4.33333C3.71449 0 3.121 0.237053 2.68342 0.65901C2.24583 1.08097 2 1.65326 2 2.25ZM13.6667 1.125C13.9761 1.125 14.2728 1.24353 14.4916 1.4545C14.7104 1.66548 14.8333 1.95163 14.8333 2.25V14.625H3.16667V2.25C3.16667 1.95163 3.28958 1.66548 3.50838 1.4545C3.72717 1.24353 4.02391 1.125 4.33333 1.125H13.6667ZM7.55333 4.96012C7.775 4.73625 8.195 4.5 9 4.5C9.805 4.5 10.225 4.73737 10.4467 4.96012C10.68 5.19637 10.75 5.47312 10.75 5.625C10.75 6.13575 10.435 6.41025 9.9065 6.6645C9.77477 6.72645 9.64133 6.78497 9.50633 6.84L9.48067 6.85125C9.35267 6.90203 9.22659 6.95719 9.10267 7.01663C8.95686 7.0838 8.82141 7.17012 8.70017 7.27313C8.61225 7.34903 8.54165 7.44173 8.49284 7.54534C8.44404 7.64895 8.4181 7.76121 8.41667 7.875V9C8.41667 9.14918 8.47812 9.29226 8.58752 9.39775C8.69692 9.50324 8.84529 9.5625 9 9.5625C9.15471 9.5625 9.30308 9.50324 9.41248 9.39775C9.52188 9.29226 9.58333 9.14918 9.58333 9V8.04375L9.6265 8.02125C9.714 7.9785 9.82017 7.93463 9.95667 7.87838L9.9695 7.87275C10.106 7.81538 10.2647 7.749 10.4268 7.67025C11.065 7.3665 11.9167 6.80288 11.9167 5.625C11.9167 5.21438 11.7533 4.64738 11.2867 4.1805C10.8083 3.70125 10.0617 3.375 9 3.375C7.93833 3.375 7.19167 3.70013 6.71333 4.1805C6.24667 4.64738 6.08333 5.21438 6.08333 5.625C6.08333 5.77418 6.14479 5.91726 6.25419 6.02275C6.36358 6.12824 6.51196 6.1875 6.66667 6.1875C6.82138 6.1875 6.96975 6.12824 7.07915 6.02275C7.18854 5.91726 7.25 5.77418 7.25 5.625C7.25 5.47312 7.32 5.19637 7.55333 4.96012ZM9 12.375C9.23206 12.375 9.45462 12.2861 9.61872 12.1279C9.78281 11.9696 9.875 11.755 9.875 11.5312C9.875 11.3075 9.78281 11.0929 9.61872 10.9346C9.45462 10.7764 9.23206 10.6875 9 10.6875C8.76794 10.6875 8.54538 10.7764 8.38128 10.9346C8.21719 11.0929 8.125 11.3075 8.125 11.5312C8.125 11.755 8.21719 11.9696 8.38128 12.1279C8.54538 12.2861 8.76794 12.375 9 12.375Z" fill="#3F3F3F"/>
</svg>
