<svg width="12" height="15" viewBox="0 0 12 15" fill="none" xmlns="http://www.w3.org/2000/svg">
<path d="M0.8 10.6904C0.976 10.5357 1.172 10.4179 1.388 10.3368C1.60293 10.2557 1.8376 10.2152 2.092 10.2152H2.708V0.8H2.4C1.96427 0.8 1.58853 0.9576 1.2728 1.2728C0.9576 1.58853 0.8 1.96427 0.8 2.4V10.6904ZM3.508 10.2152H10.4V1.2928C10.4 1.1488 10.3539 1.03067 10.2616 0.9384C10.1693 0.846133 10.0515 0.8 9.908 0.8H3.508V10.2152ZM2.0928 14.4C1.51413 14.4 1.0208 14.1957 0.6128 13.7872C0.204267 13.3797 0 12.8867 0 12.308V2.4C0 1.72907 0.232267 1.16133 0.6968 0.6968C1.16133 0.232267 1.72907 0 2.4 0H9.908C10.2653 0 10.5701 0.125867 10.8224 0.3776C11.0741 0.629333 11.2 0.9344 11.2 1.2928V10.696C11.2 10.7824 11.1696 10.8587 11.1088 10.9248C11.0475 10.9909 10.9651 11.0416 10.8616 11.0768C10.5827 11.1493 10.3539 11.2979 10.1752 11.5224C9.99653 11.7469 9.90747 12.0083 9.908 12.3064C9.908 12.5949 9.99467 12.8523 10.168 13.0784C10.3413 13.3045 10.5675 13.4576 10.8464 13.5376C10.9611 13.5765 11.0488 13.6325 11.1096 13.7056C11.1704 13.7787 11.2005 13.8597 11.2 13.9488V13.9944C11.2 14.1085 11.1619 14.2045 11.0856 14.2824C11.0093 14.3603 10.9141 14.3995 10.8 14.4H2.0928ZM2.0928 13.6H9.5832C9.4312 13.424 9.31387 13.2288 9.2312 13.0144C9.14853 12.8011 9.1072 12.5653 9.1072 12.3072C9.1072 12.0635 9.14773 11.8315 9.2288 11.6112C9.30987 11.3909 9.428 11.1923 9.5832 11.0152H2.0928C1.72533 11.0152 1.41813 11.1421 1.1712 11.396C0.924267 11.6499 0.800533 11.9539 0.8 12.308C0.8 12.6749 0.923734 12.9819 1.1712 13.2288C1.41867 13.4757 1.72587 13.5995 2.0928 13.6Z" fill="black"/>
</svg>
