<?xml version="1.0" encoding="UTF-8"?>
<svg version="1.1" xmlns="http://www.w3.org/2000/svg" width="512" height="512">
<path d="M0 0 C2.19268134 -0.0057112 4.38535971 -0.01267835 6.57803345 -0.02079773 C12.501746 -0.03866254 18.42530988 -0.03757317 24.34904122 -0.03185534 C29.3089113 -0.02875341 34.26875322 -0.03486719 39.22861928 -0.04089409 C51.60577888 -0.05571617 63.9828577 -0.05214449 76.36001714 -0.04003078 C86.40689953 -0.03072232 96.4536287 -0.04006028 106.50048828 -0.0625 C118.20523779 -0.0885462 129.90988359 -0.10092251 141.61466283 -0.09431225 C147.79661757 -0.0909542 153.97842959 -0.09328076 160.16036415 -0.11056328 C165.97753813 -0.12611782 171.79438414 -0.12198287 177.61154556 -0.10325813 C179.73502353 -0.09959554 181.85852627 -0.10261189 183.98198128 -0.11314392 C199.27439498 -0.18314647 213.80049334 0.77329489 227.5612793 8.21655273 C228.55744263 8.7380188 228.55744263 8.7380188 229.57373047 9.27001953 C234.89738132 12.12888452 239.65418505 15.3177996 244.1237793 19.40405273 C245.46182617 20.60481445 245.46182617 20.60481445 246.8269043 21.82983398 C261.52278093 35.70258091 270.81471505 54.727547 271.52783203 75.07714844 C271.55393056 77.41125182 271.56319759 79.74559197 271.55737305 82.07983398 C271.5626149 83.32983688 271.56785675 84.57983978 271.57325745 85.86772156 C271.57963298 88.48700217 271.57839927 91.1063116 271.56982422 93.72558594 C271.56410643 96.3961207 271.56769297 99.06418255 271.59033203 101.734375 C271.62105246 105.62062801 271.62441485 109.50597887 271.61987305 113.39233398 C271.63110703 114.57894119 271.642341 115.7655484 271.65391541 116.9881134 C271.59023592 124.5816276 270.88686712 130.59240894 265.30737305 136.24389648 C264.73116211 136.60612305 264.15495117 136.96834961 263.5612793 137.34155273 C262.6930957 137.91196289 262.6930957 137.91196289 261.80737305 138.49389648 C256.18816703 141.53165751 248.79455133 141.39971966 242.7331543 139.75561523 C237.72678696 137.51994738 234.71377407 134.19498728 232.1237793 129.40405273 C231.19866519 126.6287104 230.98545058 124.90126012 230.95019531 122.03125 C230.93670547 121.1492543 230.92321564 120.26725861 230.90931702 119.35853577 C230.89365944 117.92893776 230.89365944 117.92893776 230.87768555 116.47045898 C230.84471302 114.43855419 230.81150202 112.40665325 230.77807617 110.37475586 C230.73094066 107.18248477 230.68657295 103.99022529 230.64697266 100.79785156 C230.71706345 74.53226299 230.71706345 74.53226299 218.14331055 52.22436523 C207.93533423 43.0233653 195.84575321 41.24303594 182.61175537 41.27033997 C181.38301142 41.26694163 181.38301142 41.26694163 180.12944436 41.26347464 C177.4045596 41.2571815 174.67972518 41.25796098 171.95483398 41.25878906 C169.99285315 41.25579463 168.03087291 41.25239145 166.06889343 41.24861145 C160.75261212 41.23979584 155.43634692 41.23743435 150.12005901 41.23679566 C146.79451773 41.23608374 143.46898052 41.23394672 140.14344025 41.23129845 C128.52995037 41.22205287 116.91647195 41.21796255 105.30297852 41.21875 C94.49668919 41.21935048 83.69044984 41.20880248 72.88417315 41.19300634 C63.59048057 41.17990786 54.29680428 41.17456708 45.00310254 41.17520541 C39.4595166 41.17545973 33.91597508 41.17264496 28.37239838 41.16202736 C23.15537598 41.15230759 17.93844011 41.15229371 12.72141457 41.15954399 C10.81395401 41.16058504 8.90648796 41.15825564 6.99903679 41.15218353 C-9.73602084 41.10238853 -25.09628549 41.34309067 -38.0559082 53.38452148 C-48.8297722 65.33749935 -49.02857363 79.41818143 -49.00993347 94.64862061 C-49.01180348 96.09890306 -49.01410495 97.54918502 -49.01679879 98.99946618 C-49.02289968 102.97158379 -49.02278522 106.9436803 -49.02160442 110.91580153 C-49.02139998 115.20495902 -49.0269233 119.49410981 -49.03166199 123.78326416 C-49.03995973 132.18167214 -49.04271643 140.5800731 -49.04327437 148.97848484 C-49.04374994 155.80694918 -49.04580679 162.63541121 -49.04897499 169.46387482 C-49.0577792 188.83463284 -49.06239474 208.20538534 -49.06164452 227.57614538 C-49.06158458 229.14176518 -49.06158458 229.14176518 -49.06152344 230.73901367 C-49.06146212 232.30655067 -49.06146212 232.30655067 -49.06139956 233.90575507 C-49.06099316 250.83944856 -49.07056172 267.77311981 -49.0846618 284.70680687 C-49.09903389 302.10479058 -49.10593153 319.50276346 -49.10506803 336.90075326 C-49.10473634 346.66412817 -49.10747087 356.42747975 -49.11824608 366.1908493 C-49.12736203 374.50387932 -49.12951733 382.81687544 -49.12273666 391.12990829 C-49.11947698 395.36833194 -49.11939478 399.60669061 -49.1280899 403.84510803 C-49.13598028 407.73134456 -49.13449771 411.61746484 -49.12580577 415.50369862 C-49.12427636 416.90339508 -49.12606571 418.30310032 -49.13166585 419.70278642 C-49.18947286 435.18665743 -47.83122523 448.81440734 -36.89575195 460.58374023 C-26.68777563 469.78474017 -14.59819462 471.56506953 -1.36419678 471.5377655 C-0.54503414 471.54003106 0.27412849 471.54229662 1.11811423 471.54463083 C3.84299899 471.55092397 6.56783342 471.55014449 9.29272461 471.54931641 C11.25470544 471.55231084 13.21668569 471.55571402 15.17866516 471.55949402 C20.49494647 471.56830963 25.81121167 471.57067112 31.12749958 471.5713098 C34.45304086 471.57202173 37.77857808 471.57415875 41.10411835 471.57680702 C52.71760822 471.5860526 64.33108664 471.59014292 75.94458008 471.58935547 C86.7508694 471.58875499 97.55710876 471.59930299 108.36338544 471.61509913 C117.65707802 471.62819761 126.95075432 471.63353839 136.24445605 471.63290006 C141.78804199 471.63264574 147.33158351 471.63546051 152.87516022 471.64607811 C158.09218262 471.65579788 163.30911848 471.65581176 168.52614403 471.64856148 C170.43360458 471.64752043 172.34107063 471.64984983 174.2485218 471.65592194 C190.98357944 471.70571693 206.34384409 471.4650148 219.3034668 459.42358398 C229.10044637 448.55440278 230.23765 435.81372342 230.29956055 421.84155273 C230.32274689 419.80768808 230.34686373 417.77383386 230.37182617 415.73999023 C230.40695533 412.56706594 230.43631947 409.39453098 230.44970703 406.22143555 C230.46523449 403.13601037 230.50545184 400.05168481 230.54956055 396.96655273 C230.54765213 396.02674561 230.54574371 395.08693848 230.54377747 394.11865234 C230.66975065 387.28540528 232.01602809 381.55190395 236.94018555 376.56420898 C237.51639648 376.20198242 238.09260742 375.83975586 238.6862793 375.46655273 C239.26506836 375.0862793 239.84385742 374.70600586 240.44018555 374.31420898 C246.05939156 371.27644796 253.45300727 371.40838581 259.5144043 373.05249023 C264.52077164 375.28815809 267.53378452 378.61311819 270.1237793 383.40405273 C271.14475992 386.4669946 271.26839202 388.60555764 271.30078125 391.81494141 C271.31361649 392.92427536 271.32645172 394.03360931 271.3396759 395.17655945 C271.3507563 396.98106316 271.3507563 396.98106316 271.36206055 398.82202148 C271.37013229 400.06720047 271.37820404 401.31237946 271.38652039 402.59529114 C271.40037084 405.24081133 271.41138076 407.88620663 271.41894531 410.53173828 C271.43203545 414.53047612 271.47988221 418.52858747 271.52416992 422.52709961 C271.62581825 438.96149125 271.30966317 454.05447285 263.3112793 468.84155273 C262.96363525 469.50566162 262.61599121 470.16977051 262.2578125 470.85400391 C259.39894751 476.17765475 256.21003243 480.93445849 252.1237793 485.40405273 C251.32327148 486.29608398 250.52276367 487.18811523 249.69799805 488.10717773 C236.40713616 502.18664358 217.96387907 511.81819145 198.39917564 512.68365288 C192.68235877 512.83830951 186.96597583 512.8216086 181.24755859 512.80810547 C179.05487726 512.81381667 176.86219889 512.82078382 174.66952515 512.8289032 C168.74581259 512.84676801 162.82224872 512.84567864 156.89851737 512.83996081 C151.9386473 512.83685888 146.97880537 512.84297266 142.01893932 512.84899956 C129.64177971 512.86382164 117.26470089 512.86024996 104.88754145 512.84813625 C94.84065906 512.83882779 84.79392989 512.84816575 74.74707031 512.87060547 C63.0423208 512.89665167 51.337675 512.90902798 39.63289577 512.90241772 C33.45094102 512.89905967 27.269129 512.90138622 21.08719444 512.91866875 C15.27002046 512.93422329 9.45317446 512.93008833 3.63601303 512.9113636 C1.51253506 512.90770101 -0.61096767 512.91071736 -2.73442268 512.92124939 C-18.02683639 512.99125193 -32.55293475 512.03481058 -46.3137207 504.59155273 C-46.97782959 504.24390869 -47.64193848 503.89626465 -48.32617188 503.53808594 C-53.64982272 500.67922095 -58.40662645 497.49030587 -62.8762207 493.40405273 C-63.76825195 492.60354492 -64.6602832 491.80303711 -65.5793457 490.97827148 C-79.495794 477.84129639 -88.69119352 460.00413365 -90.15263832 440.76520193 C-90.26326565 436.73167873 -90.28180402 432.70848453 -90.26390076 428.67399597 C-90.26808243 427.1232505 -90.27356449 425.57250808 -90.28022057 424.02177125 C-90.29458473 419.79497888 -90.29045895 415.56838299 -90.28305376 411.34158027 C-90.27830183 406.76952628 -90.29084979 402.19751356 -90.30107117 397.62547302 C-90.31822531 388.68161963 -90.31910617 379.73783659 -90.31385826 370.79397102 C-90.30980881 363.52038357 -90.31126932 356.24681683 -90.31660652 348.97323036 C-90.31735494 347.93607547 -90.31810337 346.89892058 -90.31887447 345.83033675 C-90.32040602 343.72301639 -90.32194437 341.61569603 -90.32348944 339.50837568 C-90.33720238 319.76731089 -90.3317854 300.02628579 -90.32030422 280.28522191 C-90.31037441 262.24874261 -90.32331033 244.21236593 -90.34723841 226.17590245 C-90.37165631 207.62963944 -90.38123059 189.08342418 -90.37458569 170.53714544 C-90.37109928 160.13541734 -90.37328719 149.73376812 -90.39083672 139.33205223 C-90.40559242 130.47684307 -90.40615028 121.62176833 -90.3887658 112.76656171 C-90.38028089 108.25413626 -90.37804447 103.74195061 -90.39341736 99.22953796 C-90.40734987 95.08843359 -90.40239269 90.94777252 -90.38317812 86.80669323 C-90.37944383 85.31892129 -90.38226474 83.83111308 -90.39278977 82.34337368 C-90.48015747 69.03371087 -88.47293433 55.81564068 -82.0637207 43.96655273 C-81.71607666 43.30244385 -81.36843262 42.63833496 -81.01025391 41.95410156 C-78.15138892 36.63045071 -74.96247384 31.87364698 -70.8762207 27.40405273 C-70.07571289 26.51202148 -69.27520508 25.61999023 -68.45043945 24.70092773 C-49.43277608 4.55486466 -26.46761861 -0.06249908 0 0 Z " fill="#000000" transform="translate(90.876220703125,-0.404052734375)"/>
<path d="M0 0 C1.07765625 -0.03996094 2.1553125 -0.07992187 3.265625 -0.12109375 C12.78607757 1.40516714 19.48186862 9.6952807 26.00390625 16.22265625 C27.07401041 17.28564123 28.14440479 18.34833412 29.21507263 19.41075134 C31.44992724 21.63221924 33.678827 23.85946503 35.90405273 26.09057617 C38.73013378 28.92253601 41.5739862 31.7358613 44.42315769 34.54456425 C46.63780581 36.73311931 48.84062746 38.93329923 51.04044914 41.13674736 C52.08289301 42.17751893 53.12923434 43.21440434 54.17981148 44.24696541 C65.60060269 55.49331484 72.94897097 66.42527271 73.12109375 82.7578125 C73.12238281 83.88960938 73.12367188 85.02140625 73.125 86.1875 C73.14949219 87.30382812 73.17398437 88.42015625 73.19921875 89.5703125 C73.25527483 105.60235222 66.11589395 116.31039576 55.11881161 127.47926807 C53.60391936 129.00057297 52.08178621 130.51435265 50.55859375 132.02734375 C49.4839433 133.10402079 48.40973802 134.18114234 47.33595276 135.25868225 C45.10095082 137.49807242 42.86070195 139.73203427 40.61645508 141.9621582 C37.74936578 144.81207441 34.89607107 147.67536506 32.04652309 150.54280758 C29.83769843 152.76249442 27.62175197 154.97496043 25.40361214 157.18533516 C24.34851381 158.23844251 23.29561095 159.29375452 22.24502373 160.35136223 C20.77654916 161.82750081 19.29872038 163.29361033 17.81811523 164.75756836 C16.9820726 165.59122421 16.14602997 166.42488007 15.28465271 167.28379822 C9.44123633 172.24896612 4.40552092 173.0340119 -3.05078125 172.85546875 C-9.05640099 172.07085176 -12.55512528 169.22157865 -16.625 164.9375 C-20.24327559 159.37092217 -21.33817655 154.03111212 -20.25 147.4375 C-17.78417145 140.90418849 -13.81078106 136.45717747 -8.859375 131.65625 C-8.15476135 130.95729614 -7.45014771 130.25834229 -6.72418213 129.53820801 C-4.49207484 127.3283246 -2.24640988 125.13283321 0 122.9375 C1.52435851 121.43322441 3.04780575 119.92802478 4.5703125 118.421875 C8.28640376 114.74966523 12.01370057 111.08914094 15.75 107.4375 C14.49986366 107.43603344 13.24972733 107.43456688 11.96170807 107.43305588 C-17.72358174 107.39734282 -47.40875523 107.3410857 -77.09395131 107.25957905 C-80.74883173 107.24956176 -84.40371258 107.2397176 -88.05859375 107.22998047 C-88.78620527 107.2280391 -89.51381679 107.22609772 -90.26347715 107.22409752 C-102.04007928 107.19308856 -113.81666193 107.17609996 -125.59329718 107.16430578 C-137.68000399 107.15188848 -149.76660866 107.12437406 -161.85325098 107.08288693 C-168.64098199 107.06002021 -175.42858112 107.04409788 -182.21635437 107.04561615 C-188.60543371 107.04636095 -194.99419045 107.02848179 -201.38318634 106.99633217 C-203.72769449 106.98781482 -206.07223875 106.98609563 -208.41675568 106.99169731 C-211.61980783 106.99833076 -214.82183164 106.98043089 -218.02478027 106.95648193 C-218.95086893 106.96424235 -219.87695758 106.97200277 -220.83110952 106.97999835 C-227.54773675 106.89119913 -233.19616372 105.45243391 -238.08984375 100.62109375 C-238.45207031 100.04488281 -238.81429687 99.46867187 -239.1875 98.875 C-239.56777344 98.29621094 -239.94804687 97.71742188 -240.33984375 97.12109375 C-243.37760477 91.50188773 -243.24566692 84.10827203 -241.6015625 78.046875 C-239.36589464 73.04050766 -236.04093455 70.02749478 -231.25 67.4375 C-228.50772299 66.52340766 -226.89340086 66.3089745 -224.07021809 66.2988348 C-223.21429642 66.29336036 -222.35837475 66.28788591 -221.47651607 66.28224558 C-220.53586321 66.28126747 -219.59521035 66.28028936 -218.62605286 66.27928162 C-217.62710281 66.27434364 -216.62815276 66.26940566 -215.59893149 66.26431805 C-212.23628483 66.24890391 -208.87365731 66.24057182 -205.51098633 66.23217773 C-203.10663178 66.22260229 -200.70227892 66.21259241 -198.29792786 66.20217896 C-193.11362738 66.18070657 -187.92932546 66.16226929 -182.74500465 66.14657402 C-175.24931732 66.12387599 -167.75365823 66.09573306 -160.25799485 66.06625474 C-148.09722063 66.01857802 -135.93643485 65.97531405 -123.77563477 65.93481445 C-111.96149802 65.89545994 -100.14737154 65.85403382 -88.33325195 65.80981445 C-87.6052132 65.80709018 -86.87717445 65.80436591 -86.12707392 65.80155908 C-82.47477231 65.78787961 -78.82247085 65.77415934 -75.17016947 65.76041877 C-44.86346756 65.64645273 -14.55674395 65.539717 15.75 65.4375 C15.13985298 64.84067665 15.13985298 64.84067665 14.51737976 64.23179626 C10.27127175 60.07444287 6.03951782 55.90286941 1.81567383 51.72290039 C0.23920607 50.16650059 -1.34083937 48.61371571 -2.92456055 47.06469727 C-5.20539979 44.83258472 -7.47289411 42.58762422 -9.73828125 40.33984375 C-10.79780754 39.31128517 -10.79780754 39.31128517 -11.8787384 38.26194763 C-17.06139667 33.08166015 -20.6747687 28.15151373 -20.6875 20.5 C-20.48502275 14.70738984 -18.81278806 10.13048317 -14.7890625 5.90234375 C-9.98515869 1.72026505 -6.3417245 0.12773616 0 0 Z " fill="#000000" transform="translate(439.25,170.5625)"/>
</svg>
