<svg width="16" height="12" viewBox="0 0 16 12" fill="none" xmlns="http://www.w3.org/2000/svg">
<path d="M11.6719 0H3.79688C2.79022 0.00111664 1.82512 0.401502 1.11331 1.11331C0.401502 1.82512 0.00111664 2.79022 0 3.79688V10.5469C0 10.8079 0.103711 11.0583 0.288317 11.2429C0.472923 11.4275 0.723303 11.5312 0.984375 11.5312H14.4844C14.7454 11.5312 14.9958 11.4275 15.1804 11.2429C15.365 11.0583 15.4688 10.8079 15.4688 10.5469V3.79688C15.4676 2.79022 15.0672 1.82512 14.3554 1.11331C13.6436 0.401502 12.6785 0.00111664 11.6719 0ZM14.625 3.79688V4.5H12.0938V0.874687C12.7962 0.976812 13.4384 1.32823 13.9032 1.86475C14.3679 2.40126 14.6241 3.08706 14.625 3.79688ZM8.4375 6.75H7.03125V4.21875H8.4375V6.75ZM6.60938 7.59375H8.85938C8.97126 7.59375 9.07857 7.5493 9.15769 7.47019C9.2368 7.39107 9.28125 7.28376 9.28125 7.17188V5.34375H11.25V10.6875H4.21875V5.34375H6.1875V7.17188C6.1875 7.28376 6.23195 7.39107 6.31106 7.47019C6.39018 7.5493 6.49749 7.59375 6.60938 7.59375ZM9.28125 4.5V3.79688C9.28125 3.68499 9.2368 3.57768 9.15769 3.49856C9.07857 3.41945 8.97126 3.375 8.85938 3.375H6.60938C6.49749 3.375 6.39018 3.41945 6.31106 3.49856C6.23195 3.57768 6.1875 3.68499 6.1875 3.79688V4.5H4.21875V0.84375H11.25V4.5H9.28125ZM3.375 0.874687V4.5H0.84375V3.79688C0.844636 3.08706 1.10085 2.40126 1.56559 1.86475C2.03033 1.32823 2.67257 0.976812 3.375 0.874687ZM0.84375 10.5469V5.34375H3.375V10.6875H0.984375C0.947079 10.6875 0.91131 10.6727 0.884938 10.6463C0.858566 10.6199 0.84375 10.5842 0.84375 10.5469ZM14.4844 10.6875H12.0938V5.34375H14.625V10.5469C14.625 10.5842 14.6102 10.6199 14.5838 10.6463C14.5574 10.6727 14.5217 10.6875 14.4844 10.6875Z" fill="#3F3F3F"/>
</svg>
