<svg id="Economy" enable-background="new 0 0 64 64" height="512" viewBox="0 0 64 64" width="512" xmlns="http://www.w3.org/2000/svg"><g><g><path d="m45.189 55.666h-26.378c-3.571 0-6.477-2.906-6.477-6.478v-15.711c0-3.571 2.906-6.477 6.477-6.477h26.379c3.571 0 6.477 2.905 6.477 6.477v15.712c0 3.571-2.906 6.477-6.478 6.477zm-26.378-26.666c-2.469 0-4.477 2.008-4.477 4.477v15.712c0 2.469 2.008 4.478 4.477 4.478h26.379c2.469 0 4.477-2.009 4.477-4.478v-15.712c0-2.469-2.008-4.477-4.477-4.477z" fill="rgb(0,0,0)"/></g><g><path d="m40 29c-.552 0-1-.447-1-1v-10.667c0-3.859-3.14-7-7-7s-7 3.141-7 7v10.667c0 .553-.448 1-1 1s-1-.447-1-1v-10.667c0-4.963 4.038-9 9-9s9 4.037 9 9v10.667c0 .553-.448 1-1 1z" fill="rgb(0,0,0)"/></g><g><g><path d="m38.087 41.333c-.07-2.753-4.105-2.752-4.174 0 .07 2.753 4.105 2.752 4.174 0z"/></g><g><path d="m46.087 41.333c-.07-2.753-4.105-2.752-4.174 0 .07 2.753 4.105 2.752 4.174 0z"/></g><g><path d="m22.087 41.333c-.07-2.753-4.105-2.752-4.174 0 .07 2.753 4.105 2.752 4.174 0z"/></g><g><path d="m30.087 41.333c-.07-2.753-4.105-2.752-4.174 0 .07 2.753 4.105 2.752 4.174 0z"/></g></g></g></svg>