<svg width="28" height="28" viewBox="0 0 28 28" fill="none" xmlns="http://www.w3.org/2000/svg">
<path d="M26.1275 28C23.1782 28 20.1542 27.2615 17.0555 25.7845C13.9568 24.3075 11.0781 22.2337 8.41925 19.5632C5.76042 16.8927 3.6925 14.014 2.2155 10.927C0.7385 7.84 0 4.82183 0 1.8725C0 1.33817 0.175 0.893084 0.525 0.53725C0.875 0.181417 1.3125 0.00233333 1.8375 0H6.16525C6.64125 0 7.05658 0.149917 7.41125 0.44975C7.76592 0.749583 8.00567 1.134 8.1305 1.603L8.9985 5.775C9.08017 6.265 9.06558 6.69258 8.95475 7.05775C8.84392 7.42292 8.64967 7.72217 8.372 7.9555L4.5325 11.536C5.25117 12.8392 6.04508 14.0502 6.91425 15.169C7.78342 16.2878 8.71092 17.3477 9.69675 18.3487C10.7118 19.3637 11.8049 20.3088 12.9762 21.1838C14.1476 22.0576 15.4333 22.8824 16.8333 23.6582L20.5765 19.8485C20.8612 19.5417 21.1814 19.3393 21.5372 19.2412C21.8919 19.1444 22.2851 19.1252 22.7168 19.1835L26.397 19.936C26.873 20.0527 27.2592 20.2924 27.5555 20.6553C27.8518 21.0181 28 21.4334 28 21.9012V26.1625C28 26.6875 27.8215 27.125 27.4645 27.475C27.1075 27.825 26.6607 28 26.1275 28ZM3.71 9.8945L7.07 6.80575C7.18083 6.71592 7.25317 6.59225 7.287 6.43475C7.322 6.27725 7.31617 6.13142 7.2695 5.99725L6.49425 2.28725C6.44875 2.10875 6.37 1.97458 6.258 1.88475C6.146 1.79492 6.00075 1.75 5.82225 1.75H2.23125C2.09708 1.75 1.98508 1.79492 1.89525 1.88475C1.80542 1.97458 1.7605 2.08658 1.7605 2.22075C1.79433 3.41658 1.98158 4.66492 2.32225 5.96575C2.66292 7.26658 3.12433 8.57617 3.71 9.8945ZM18.4993 24.479C19.6823 25.0647 20.9423 25.4981 22.2793 25.7793C23.6186 26.0593 24.7853 26.2092 25.7793 26.229C25.9134 26.229 26.0254 26.1841 26.1152 26.0942C26.2051 26.0044 26.25 25.893 26.25 25.76V22.246C26.25 22.0675 26.2051 21.9217 26.1152 21.8085C26.0254 21.6965 25.8913 21.6183 25.7128 21.574L22.4753 20.9108C22.3399 20.8653 22.2215 20.8594 22.12 20.8932C22.0197 20.9282 21.9135 21.0012 21.8015 21.112L18.4993 24.479Z" fill="black"/>
</svg>
