<svg width="24" height="24" viewBox="0 0 24 24" fill="none" xmlns="http://www.w3.org/2000/svg">
<path d="M23.125 11.8724C23.1286 14.1058 22.4643 16.2893 21.2175 18.1424C20.1893 19.6762 18.7989 20.9329 17.1694 21.8015C15.54 22.6701 13.7215 23.1238 11.875 23.1224C10.0285 23.1238 8.21004 22.6701 6.58056 21.8015C4.95107 20.9329 3.56073 19.6762 2.5325 18.1424C1.55341 16.6829 0.929878 15.0143 0.711882 13.2704C0.493887 11.5265 0.687494 9.75583 1.27718 8.10025C1.86687 6.44466 2.83624 4.95026 4.10758 3.73684C5.37892 2.52341 6.91687 1.62473 8.59813 1.11282C10.2794 0.600905 12.0572 0.490011 13.7891 0.789023C15.5209 1.08804 17.1586 1.78864 18.5709 2.83467C19.9832 3.88069 21.1307 5.24305 21.9216 6.81252C22.7124 8.38199 23.1246 10.1149 23.125 11.8724Z" stroke="black" stroke-width="1.25"/>
<path d="M13.75 8.12239C13.75 8.61967 13.5524 9.09659 13.2008 9.44822C12.8492 9.79985 12.3723 9.99739 11.875 9.99739V11.2474C12.2854 11.2474 12.6917 11.1666 13.0709 11.0095C13.45 10.8525 13.7945 10.6223 14.0847 10.3321C14.3749 10.0419 14.6051 9.69742 14.7621 9.31828C14.9192 8.93913 15 8.53277 15 8.12239H13.75ZM11.875 9.99739C11.3777 9.99739 10.9008 9.79985 10.5492 9.44822C10.1975 9.09659 9.99998 8.61967 9.99998 8.12239H8.74998C8.74998 8.53277 8.83081 8.93913 8.98786 9.31828C9.1449 9.69742 9.37509 10.0419 9.66527 10.3321C10.2513 10.9182 11.0462 11.2474 11.875 11.2474V9.99739ZM9.99998 8.12239C9.99998 7.62511 10.1975 7.1482 10.5492 6.79657C10.9008 6.44493 11.3777 6.24739 11.875 6.24739V4.99739C11.0462 4.99739 10.2513 5.32663 9.66527 5.91268C9.07922 6.49873 8.74998 7.29359 8.74998 8.12239H9.99998ZM11.875 6.24739C12.3723 6.24739 12.8492 6.44493 13.2008 6.79657C13.5524 7.1482 13.75 7.62511 13.75 8.12239H15C15 7.29359 14.6707 6.49873 14.0847 5.91268C13.4986 5.32663 12.7038 4.99739 11.875 4.99739V6.24739ZM3.33248 19.1924L2.73248 19.0149L2.63623 19.3411L2.85748 19.5999L3.33248 19.1924ZM20.4175 19.1924L20.8925 19.5999L21.1137 19.3411L21.0162 19.0149L20.4175 19.1924ZM8.12498 16.2474H15.625V14.9974H8.12498V16.2474ZM8.12498 14.9974C6.91355 14.9972 5.73443 15.3881 4.76305 16.112C3.79167 16.8359 3.07868 17.854 2.73248 19.0149L3.93123 19.3711C4.2007 18.4683 4.75443 17.6766 5.51004 17.1138C6.26566 16.5509 7.18279 16.2471 8.12498 16.2474V14.9974ZM11.875 22.4974C10.3416 22.499 8.82605 22.1679 7.43301 21.527C6.03998 20.8861 4.80259 19.9505 3.80623 18.7849L2.85748 19.5999C3.97129 20.9021 5.35428 21.9472 6.91107 22.6633C8.46786 23.3793 10.1614 23.7492 11.875 23.7474V22.4974ZM15.625 16.2474C16.5673 16.2471 17.4846 16.5512 18.2402 17.1143C18.9959 17.6773 19.5495 18.4693 19.8187 19.3724L21.0162 19.0149C20.67 17.854 19.9583 16.8359 18.9869 16.112C18.0155 15.3881 16.8364 14.9972 15.625 14.9974V16.2474ZM19.9437 18.7849C18.9474 19.9505 17.71 20.8861 16.3169 21.527C14.9239 22.1679 13.4084 22.499 11.875 22.4974V23.7474C13.5885 23.7492 15.2821 23.3793 16.8389 22.6633C18.3957 21.9472 19.7787 20.9021 20.8925 19.5999L19.9437 18.7849Z" fill="black"/>
</svg>
