<svg width="13" height="13" viewBox="0 0 13 13" fill="none" xmlns="http://www.w3.org/2000/svg">
<path fill-rule="evenodd" clip-rule="evenodd" d="M0.199636 0.199636C0.327629 0.0718025 0.501128 0 0.682025 0C0.862921 0 1.03642 0.0718025 1.16441 0.199636L12.0864 11.1216C12.1535 11.1841 12.2073 11.2595 12.2446 11.3432C12.2819 11.427 12.302 11.5174 12.3036 11.609C12.3052 11.7007 12.2883 11.7917 12.254 11.8767C12.2197 11.9617 12.1686 12.0389 12.1037 12.1037C12.0389 12.1686 11.9617 12.2197 11.8767 12.254C11.7917 12.2883 11.7007 12.3052 11.609 12.3036C11.5174 12.302 11.427 12.2819 11.3432 12.2446C11.2595 12.2073 11.1841 12.1535 11.1216 12.0864L0.199636 1.16441C0.0718025 1.03642 0 0.862921 0 0.682025C0 0.501128 0.0718025 0.327629 0.199636 0.199636Z" fill="black"/>
<path fill-rule="evenodd" clip-rule="evenodd" d="M12.0861 0.199636C12.2139 0.327629 12.2857 0.501128 12.2857 0.682025C12.2857 0.862921 12.2139 1.03642 12.0861 1.16441L1.1641 12.0864C1.0347 12.207 0.863543 12.2726 0.686696 12.2695C0.50985 12.2664 0.341118 12.1948 0.21605 12.0697C0.0909807 11.9446 0.0193399 11.7759 0.0162196 11.599C0.0130994 11.4222 0.0787433 11.251 0.199322 11.1216L11.1213 0.199636C11.2493 0.0718025 11.4228 0 11.6037 0C11.7846 0 11.9581 0.0718025 12.0861 0.199636Z" fill="black"/>
</svg>
