<svg width="13" height="16" viewBox="0 0 13 16" fill="none" xmlns="http://www.w3.org/2000/svg">
<path d="M2.8125 9H7.3125V10.125H2.8125V9ZM2.8125 6.1875H9.5625V7.3125H2.8125V6.1875ZM2.8125 11.8125H5.625V12.9375H2.8125V11.8125Z" fill="#3F3F3F"/>
<path d="M11.25 1.6875H9.5625V1.125C9.5625 0.826631 9.44397 0.540483 9.233 0.329505C9.02202 0.118526 8.73587 0 8.4375 0H3.9375C3.63913 0 3.35298 0.118526 3.142 0.329505C2.93103 0.540483 2.8125 0.826631 2.8125 1.125V1.6875H1.125C0.826631 1.6875 0.540483 1.80603 0.329505 2.017C0.118526 2.22798 0 2.51413 0 2.8125V14.625C0 14.9234 0.118526 15.2095 0.329505 15.4205C0.540483 15.6315 0.826631 15.75 1.125 15.75H11.25C11.5484 15.75 11.8345 15.6315 12.0455 15.4205C12.2565 15.2095 12.375 14.9234 12.375 14.625V2.8125C12.375 2.51413 12.2565 2.22798 12.0455 2.017C11.8345 1.80603 11.5484 1.6875 11.25 1.6875ZM3.9375 1.125H8.4375V3.375H3.9375V1.125ZM11.25 14.625H1.125V2.8125H2.8125V4.5H9.5625V2.8125H11.25V14.625Z" fill="#3F3F3F"/>
</svg>
