<svg width="15" height="14" viewBox="0 0 15 14" fill="none" xmlns="http://www.w3.org/2000/svg">
<path d="M3.37097 1.31311H11.297C11.297 1.31311 10.637 11.2559 7.33397 11.2559C5.72147 11.2559 4.73822 8.88286 4.15472 6.45586C3.54422 3.91411 3.37097 1.31311 3.37097 1.31311Z" stroke="#3F3F3F" stroke-width="1.125" stroke-linecap="round" stroke-linejoin="round"/>
<path d="M11.297 1.31312C11.297 1.31312 11.9877 0.575865 12.5622 0.563115C13.6872 0.537615 13.895 1.31312 13.895 1.31312C14.1155 1.77062 14.2917 2.95862 13.235 4.05587C12.1782 5.15312 10.9947 6.11312 10.5132 6.45587M3.37095 1.31312C3.37095 1.31312 2.65095 0.567615 2.0622 0.563115C0.937201 0.554115 0.729451 1.31312 0.729451 1.31312C0.508951 1.77062 0.332701 2.95862 1.38945 4.05587C2.24447 4.92966 3.16928 5.73232 4.1547 6.45587M4.69245 13.3131C4.69245 11.9414 7.33395 11.2559 7.33395 11.2559C7.33395 11.2559 9.9762 11.9414 9.9762 13.3131H4.69245Z" stroke="#3F3F3F" stroke-width="1.125" stroke-linecap="round" stroke-linejoin="round"/>
</svg>
