<svg width="15" height="15" viewBox="0 0 15 15" fill="none" xmlns="http://www.w3.org/2000/svg">
<path d="M14.06 14.695L8.44388 9.07886C7.99546 9.46092 7.47977 9.75658 6.89681 9.96585C6.31386 10.1751 5.72791 10.2797 5.13898 10.2797C3.70281 10.2797 2.48728 9.78259 1.49237 8.78828C0.497455 7.79397 0 6.57873 0 5.14257C0 3.7064 0.496857 2.49057 1.49057 1.49506C2.48429 0.49955 3.69923 0.00119796 5.13539 2.15073e-06C6.57155 -0.00119366 7.78769 0.496262 8.78379 1.49237C9.7799 2.48847 10.278 3.70431 10.278 5.13987C10.278 5.76289 10.1676 6.36587 9.94701 6.94883C9.72639 7.53179 9.4364 8.03044 9.07706 8.44478L14.6932 14.06L14.06 14.695ZM5.13987 9.382C6.3297 9.382 7.33418 8.97243 8.1533 8.15331C8.97243 7.33418 9.38199 6.3294 9.38199 5.13898C9.38199 3.94855 8.97243 2.94408 8.1533 2.12555C7.33418 1.30702 6.3297 0.897454 5.13987 0.896857C3.95005 0.896259 2.94527 1.30582 2.12554 2.12555C1.30582 2.94527 0.896257 3.94975 0.896854 5.13898C0.897452 6.32821 1.30702 7.33268 2.12554 8.15241C2.94407 8.97213 3.94855 9.3817 5.13898 9.3811" fill="black"/>
</svg>
