<svg width="16" height="16" viewBox="0 0 16 16" fill="none" xmlns="http://www.w3.org/2000/svg">
<path fill-rule="evenodd" clip-rule="evenodd" d="M8.4504 0.96H7.5496L7.0336 3.0224L6.516 3.1824C6.21439 3.27534 5.92217 3.3964 5.6432 3.544L5.164 3.7976L3.34 2.7032L2.7032 3.3408L3.7976 5.1648L3.544 5.6432C3.39613 5.92214 3.2748 6.21436 3.1816 6.516L3.0224 7.0336L0.96 7.5496V8.4504L3.0224 8.9664L3.1824 9.484C3.27467 9.78693 3.3952 10.0779 3.544 10.3568L3.7976 10.836L2.7032 12.66L3.3408 13.2968L5.1648 12.2024L5.6432 12.456C5.92213 12.6043 6.21307 12.7251 6.516 12.8184L7.0336 12.9776L7.5496 15.04H8.4504L8.9664 12.9776L9.484 12.8176C9.78561 12.7247 10.0778 12.6036 10.3568 12.456L10.836 12.2024L12.66 13.2968L13.2968 12.6592L12.2024 10.8352L12.456 10.3568C12.6043 10.0779 12.7251 9.78693 12.8184 9.484L12.9776 8.9664L15.04 8.4504V7.5496L12.9776 7.0336L12.8176 6.516C12.7247 6.21439 12.6036 5.92217 12.456 5.6432L12.2024 5.164L13.2968 3.34L12.6592 2.7032L10.8352 3.7976L10.3568 3.544C10.0779 3.39613 9.78564 3.2748 9.484 3.1816L8.9664 3.0224L8.4504 0.96ZM10.8064 2.696L12.2728 1.816C12.4257 1.72429 12.6049 1.68629 12.7818 1.70803C12.9588 1.72977 13.1234 1.81001 13.2496 1.936L14.064 2.7504C14.19 2.87656 14.2702 3.0412 14.292 3.21816C14.3137 3.39513 14.2757 3.57429 14.184 3.7272L13.304 5.1936C13.48 5.52427 13.624 5.87093 13.736 6.2336L15.3944 6.6488C15.5674 6.69214 15.721 6.79204 15.8307 6.93263C15.9404 7.07323 16 7.24646 16 7.4248V8.5752C16 8.75354 15.9404 8.92677 15.8307 9.06737C15.721 9.20796 15.5674 9.30786 15.3944 9.3512L13.736 9.7664C13.624 10.1291 13.48 10.4757 13.304 10.8064L14.184 12.2728C14.2757 12.4257 14.3137 12.6049 14.292 12.7818C14.2702 12.9588 14.19 13.1234 14.064 13.2496L13.2496 14.064C13.1234 14.19 12.9588 14.2702 12.7818 14.292C12.6049 14.3137 12.4257 14.2757 12.2728 14.184L10.8064 13.304C10.4757 13.48 10.1291 13.624 9.7664 13.736L9.3512 15.3944C9.30786 15.5674 9.20796 15.721 9.06737 15.8307C8.92677 15.9404 8.75354 16 8.5752 16H7.4248C7.24646 16 7.07323 15.9404 6.93263 15.8307C6.79204 15.721 6.69214 15.5674 6.6488 15.3944L6.2336 13.736C5.87416 13.6249 5.52596 13.4803 5.1936 13.304L3.7272 14.184C3.57429 14.2757 3.39513 14.3137 3.21816 14.292C3.0412 14.2702 2.87656 14.19 2.7504 14.064L1.936 13.2496C1.81001 13.1234 1.72977 12.9588 1.70803 12.7818C1.68629 12.6049 1.72429 12.4257 1.816 12.2728L2.696 10.8064C2.51971 10.474 2.37508 10.1258 2.264 9.7664L0.6056 9.3512C0.432736 9.3079 0.279279 9.20811 0.16957 9.06768C0.0598616 8.92725 0.000182914 8.75421 0 8.576V7.4256C4.68835e-06 7.24726 0.0596017 7.07403 0.169324 6.93343C0.279047 6.79284 0.432603 6.69294 0.6056 6.6496L2.264 6.2344C2.376 5.87173 2.52 5.52507 2.696 5.1944L1.816 3.728C1.72429 3.57509 1.68629 3.39593 1.70803 3.21896C1.72977 3.042 1.81001 2.87736 1.936 2.7512L2.7504 1.936C2.87656 1.81001 3.0412 1.72977 3.21816 1.70803C3.39513 1.68629 3.57429 1.72429 3.7272 1.816L5.1936 2.696C5.52427 2.52 5.87093 2.376 6.2336 2.264L6.6488 0.6056C6.6921 0.432736 6.79189 0.279279 6.93232 0.16957C7.07275 0.0598616 7.24579 0.000182914 7.424 0H8.5744C8.75274 4.68835e-06 8.92597 0.0596017 9.06657 0.169324C9.20716 0.279047 9.30706 0.432603 9.3504 0.6056L9.7656 2.264C10.1283 2.376 10.4749 2.52 10.8056 2.696H10.8064ZM8 10.24C8.59408 10.24 9.16384 10.004 9.58392 9.58392C10.004 9.16384 10.24 8.59408 10.24 8C10.24 7.40592 10.004 6.83616 9.58392 6.41608C9.16384 5.996 8.59408 5.76 8 5.76C7.40592 5.76 6.83616 5.996 6.41608 6.41608C5.996 6.83616 5.76 7.40592 5.76 8C5.76 8.59408 5.996 9.16384 6.41608 9.58392C6.83616 10.004 7.40592 10.24 8 10.24ZM8 11.2C7.15131 11.2 6.33737 10.8629 5.73726 10.2627C5.13714 9.66263 4.8 8.84869 4.8 8C4.8 7.15131 5.13714 6.33737 5.73726 5.73726C6.33737 5.13714 7.15131 4.8 8 4.8C8.84869 4.8 9.66263 5.13714 10.2627 5.73726C10.8629 6.33737 11.2 7.15131 11.2 8C11.2 8.84869 10.8629 9.66263 10.2627 10.2627C9.66263 10.8629 8.84869 11.2 8 11.2Z" fill="black"/>
</svg>
