<svg width="14" height="14" viewBox="0 0 14 14" fill="none" xmlns="http://www.w3.org/2000/svg">
<path d="M8.51158 3.44469L10.9171 1.03848C11.1879 0.772073 11.553 0.623458 11.9329 0.625012C12.3128 0.626566 12.6766 0.778161 12.9452 1.04678C13.2139 1.3154 13.3655 1.67927 13.367 2.05915C13.3686 2.43903 13.22 2.80414 12.9535 3.07494L10.5473 5.48044L11.8493 11.9581C12.0157 12.7869 10.4085 13.9415 9.98067 12.8436L8.07525 7.95323L5.60104 10.4274C5.72146 11.8732 5.74767 12.3541 4.73404 13.367L3.19342 10.7986L0.625 9.25798C1.63792 8.24436 2.11888 8.26986 3.56458 8.39098L6.03879 5.91748L1.14846 4.01136C0.0505418 3.58353 1.20512 1.97561 2.03387 2.14278L8.51158 3.44469Z" stroke="black" stroke-width="1.25" stroke-linecap="round" stroke-linejoin="round"/>
</svg>
