<svg width="15" height="15" viewBox="0 0 15 15" fill="none" xmlns="http://www.w3.org/2000/svg">
<path fill-rule="evenodd" clip-rule="evenodd" d="M7.3125 1.125C4.88175 1.125 2.9955 2.6475 2.67375 4.5H4.3125C4.46168 4.5 4.60476 4.55926 4.71025 4.66475C4.81574 4.77024 4.875 4.91332 4.875 5.0625V10.3125C4.875 10.4617 4.81574 10.6048 4.71025 10.7102C4.60476 10.8157 4.46168 10.875 4.3125 10.875H2.0625C1.51549 10.875 0.990886 10.6577 0.604092 10.2709C0.217299 9.88411 4.53193e-08 9.35951 4.53193e-08 8.8125V6.5625C-9.50254e-05 6.10883 0.149391 5.66779 0.42531 5.30767C0.701228 4.94755 1.08818 4.68845 1.52625 4.5705C1.81275 1.9425 4.368 0 7.3125 0C10.257 0 12.8123 1.9425 13.0988 4.5705C13.5368 4.68845 13.9238 4.94755 14.1997 5.30767C14.4756 5.66779 14.6251 6.10883 14.625 6.5625V8.8125C14.6251 9.26754 14.4748 9.70986 14.1974 10.0706C13.92 10.4313 13.5311 10.6901 13.0912 10.8068C12.972 11.6578 12.5492 12.437 11.9007 13.0009C11.2523 13.5647 10.4218 13.8752 9.5625 13.875H8.70375C8.57321 14.1977 8.3345 14.465 8.02853 14.631C7.72256 14.797 7.36838 14.8514 7.02669 14.7849C6.68499 14.7184 6.37707 14.5351 6.15567 14.2665C5.93428 13.9979 5.81321 13.6606 5.81321 13.3125C5.81321 12.9644 5.93428 12.6271 6.15567 12.3585C6.37707 12.0899 6.68499 11.9066 7.02669 11.8401C7.36838 11.7736 7.72256 11.828 8.02853 11.994C8.3345 12.16 8.57321 12.4273 8.70375 12.75H9.5625C10.1113 12.7501 10.644 12.5651 11.0745 12.2248C11.505 11.8845 11.8081 11.4089 11.9347 10.875H10.3125C10.1633 10.875 10.0202 10.8157 9.91475 10.7102C9.80926 10.6048 9.75 10.4617 9.75 10.3125V5.0625C9.75 4.91332 9.80926 4.77024 9.91475 4.66475C10.0202 4.55926 10.1633 4.5 10.3125 4.5H11.9513C11.6295 2.6475 9.74325 1.125 7.3125 1.125ZM2.0625 5.625C1.545 5.625 1.125 6.045 1.125 6.5625V8.8125C1.125 9.33 1.545 9.75 2.0625 9.75H3.75V5.625H2.0625ZM13.5 6.5625C13.5 6.045 13.08 5.625 12.5625 5.625H10.875V9.75H12.5625C13.08 9.75 13.5 9.33 13.5 8.8125V6.5625Z" fill="#3F3F3F"/>
</svg>
