<svg width="13" height="15" viewBox="0 0 13 15" fill="none" xmlns="http://www.w3.org/2000/svg">
<path d="M11.9895 14.4375C11.9895 11.736 8.9775 9.54 6.276 9.54C3.5745 9.54 0.5625 11.736 0.5625 14.4375M6.276 7.092C7.14187 7.092 7.97227 6.74804 8.58453 6.13578C9.19679 5.52352 9.54075 4.69312 9.54075 3.82725C9.54075 2.96138 9.19679 2.13098 8.58453 1.51872C7.97227 0.906464 7.14187 0.5625 6.276 0.5625C5.41013 0.5625 4.57973 0.906464 3.96747 1.51872C3.35521 2.13098 3.01125 2.96138 3.01125 3.82725C3.01125 4.69312 3.35521 5.52352 3.96747 6.13578C4.57973 6.74804 5.41013 7.092 6.276 7.092Z" stroke="#3F3F3F" stroke-width="1.125" stroke-linecap="round" stroke-linejoin="round"/>
</svg>
