<svg width="26" height="26" viewBox="0 0 26 26" fill="none" xmlns="http://www.w3.org/2000/svg">
<rect x="0.5" y="0.5" width="25" height="25" rx="4.5" fill="#F1F1F1" stroke="#D4D4D4"/>
<path d="M7.75 13.5833C9.85 8.91665 16.15 8.91665 18.25 13.5833" stroke="black" stroke-width="0.875" stroke-linecap="round" stroke-linejoin="round"/>
<path d="M13 15.9166C12.7702 15.9166 12.5426 15.8714 12.3303 15.7834C12.118 15.6955 11.9251 15.5666 11.7626 15.4041C11.6001 15.2416 11.4712 15.0486 11.3832 14.8363C11.2953 14.624 11.25 14.3964 11.25 14.1666C11.25 13.9368 11.2953 13.7092 11.3832 13.4969C11.4712 13.2846 11.6001 13.0917 11.7626 12.9292C11.9251 12.7667 12.118 12.6378 12.3303 12.5498C12.5426 12.4619 12.7702 12.4166 13 12.4166C13.4641 12.4166 13.9092 12.601 14.2374 12.9292C14.5656 13.2574 14.75 13.7025 14.75 14.1666C14.75 14.6308 14.5656 15.0759 14.2374 15.4041C13.9092 15.7323 13.4641 15.9166 13 15.9166Z" stroke="black" stroke-width="0.875" stroke-linecap="round" stroke-linejoin="round"/>
</svg>
